PathFileType  4	(X/Y/Z)
DataRate	CameraRate	NumFrames	NumMarkers	Units	OrigDataRate	OrigDataStartFrame	OrigNumFrames
	100.0 	100.0	7	50	mm	100.0	34	265
Frame#	Time	R.Shoulder			R.Clavicle			R.Bicep			R.Elbow			R.Forearm			R.Wrist			L.Shoulder			L.Clavicle			L.Scapula			L.Bicep			L.Elbow			L.Forearm			L.Wrist			R.ASIS			R.Iliac			S2			L.Iliac			L.ASIS			R.TH1			R.TH2			R.TH3			R.Knee			R.SH1			R.SH2			R.SH3			R.SH4			R.Ankle			R.Heel			R.MT5			L.TH1			L.TH2			L.TH3			L.TH4			L.Knee			L.SH1			L.SH2			L.SH3			L.Ankle			L.Heel			L.MT5			R.MKnee			L.MKnee			R.MAnkle			L.MAnkle			R.MElbow			L.MElbow			R.PSIS			L.PSIS			R_HJC			L_HJC			
		X1	Y1	Z1	X2	Y2	Z2	X3	Y3	Z3	X4	Y4	Z4	X5	Y5	Z5	X6	Y6	Z6	X7	Y7	Z7	X8	Y8	Z8	X9	Y9	Z9	X10	Y10	Z10	X11	Y11	Z11	X12	Y12	Z12	X13	Y13	Z13	X14	Y14	Z14	X15	Y15	Z15	X16	Y16	Z16	X17	Y17	Z17	X18	Y18	Z18	X19	Y19	Z19	X20	Y20	Z20	X21	Y21	Z21	X22	Y22	Z22	X23	Y23	Z23	X24	Y24	Z24	X25	Y25	Z25	X26	Y26	Z26	X27	Y27	Z27	X28	Y28	Z28	X29	Y29	Z29	X30	Y30	Z30	X31	Y31	Z31	X32	Y32	Z32	X33	Y33	Z33	X34	Y34	Z34	X35	Y35	Z35	X36	Y36	Z36	X37	Y37	Z37	X38	Y38	Z38	X39	Y39	Z39	X40	Y40	Z40	X41	Y41	Z41	X42	Y42	Z42	X43	Y43	Z43	X44	Y44	Z44	X45	Y45	Z45	X46	Y46	Z46	X47	Y47	Z47	X48	Y48	Z48	X49	Y49	Z49	X50	Y50	Z50	

34	0.33000	266.094	3.416	1423.704	331.298	162.505	1412.434	287.754	-10.333	1248.172	212.749	-52.765	1111.516	309.560	-47.634	994.280	314.135	-85.477	890.116	220.655	391.604	1429.126	335.585	228.094	1415.025	128.109	250.638	1313.625	263.396	395.709	1259.544	186.489	425.548	1121.454	268.985	437.553	1008.675	258.762	462.763	889.189	354.324	46.197	958.181	261.679	31.809	1045.394	176.512	199.639	990.659	284.224	354.685	1038.137	375.618	323.325	952.152	366.974	68.450	717.510	352.731	78.698	632.123	238.754	-14.052	640.365	220.970	17.171	496.108	275.076	47.587	361.089	268.350	50.973	287.415	173.588	-6.243	366.519	165.200	-1.811	292.810	209.089	34.229	99.961	144.982	95.359	54.513	332.795	4.613	35.698	373.414	344.530	746.282	367.360	334.279	661.859	231.261	395.115	750.154	227.023	382.975	662.635	235.919	358.560	501.661	266.240	352.561	377.807	265.701	353.334	302.839	151.084	363.964	301.916	211.716	349.686	95.045	149.740	283.974	42.388	324.415	386.718	35.415	216.468	167.361	500.795	238.036	209.646	501.727	246.835	129.512	116.367	242.356	256.241	109.901	230.794	53.577	1092.032	240.375	324.523	1099.794	176.171	148.415	1006.104	184.641	249.283	1003.840	273.993	86.464	871.059	286.156	295.875	866.771
35	0.34000	266.049	3.519	1423.522	331.298	162.505	1412.434	287.917	-10.225	1247.759	212.678	-52.677	1111.504	309.618	-47.297	994.221	314.044	-85.236	890.406	220.141	391.509	1429.139	335.520	228.310	1415.163	127.971	250.606	1313.568	263.396	395.709	1259.544	186.230	425.719	1121.493	268.836	437.544	1008.741	258.746	462.902	889.200	354.324	46.197	958.181	261.679	31.809	1045.394	176.364	199.751	990.833	284.114	354.650	1038.254	375.618	323.325	952.152	366.974	68.450	717.510	352.697	78.903	632.456	239.038	-13.861	640.567	220.270	17.172	496.534	275.338	47.814	361.295	268.350	50.973	287.415	173.588	-6.243	366.519	165.154	-1.761	292.891	209.034	34.323	100.094	144.881	95.344	54.492	332.681	4.694	35.513	373.262	344.590	746.222	367.184	334.297	661.947	231.354	395.234	750.277	226.960	382.957	662.542	236.081	358.641	501.577	265.942	352.695	378.035	265.781	353.413	302.936	151.084	363.964	301.916	211.716	349.686	95.045	149.628	283.916	42.366	324.144	386.794	35.269	216.432	167.460	500.712	237.965	209.759	501.604	246.835	129.512	116.367	242.557	256.141	110.073	230.794	53.577	1092.032	240.398	324.696	1099.951	176.087	148.620	1006.253	184.863	249.305	1003.799	273.906	86.522	871.095	286.110	295.932	866.832
36	0.35000	265.951	3.488	1423.318	331.298	162.505	1412.434	287.917	-10.225	1247.759	212.722	-52.614	1111.585	309.618	-47.297	994.221	314.143	-84.926	890.312	220.074	391.497	1429.236	335.475	228.511	1415.244	127.971	250.606	1313.568	263.396	395.709	1259.544	186.211	425.850	1121.418	268.551	437.601	1008.699	258.685	462.941	889.257	354.157	46.584	958.300	261.679	31.809	1045.394	176.364	199.751	990.833	283.762	354.691	1038.146	375.236	323.148	951.544	367.065	68.623	717.508	352.803	79.151	632.632	239.218	-13.632	640.484	220.594	17.352	496.662	275.338	47.814	361.295	268.350	50.973	287.415	173.581	-6.226	366.552	165.021	-1.706	292.932	209.034	34.323	100.094	144.982	95.359	54.513	333.035	4.714	35.725	373.287	345.378	746.380	367.161	334.444	661.907	231.139	395.222	750.231	227.023	382.975	662.635	235.761	358.637	501.681	265.942	352.695	378.035	265.781	353.413	302.936	151.084	363.964	301.916	211.695	349.816	95.056	149.628	283.916	42.366	324.248	386.823	35.383	216.670	167.676	500.586	237.965	209.759	501.604	246.835	129.512	116.367	242.444	256.272	110.024	230.794	53.577	1092.032	240.398	324.696	1099.951	175.779	148.787	1006.428	184.906	249.371	1003.877	273.573	86.462	871.135	285.662	295.873	866.627
37	0.36000	265.933	3.595	1423.303	331.263	162.686	1412.397	287.917	-10.225	1247.759	212.722	-52.614	1111.585	309.694	-47.085	994.270	314.143	-84.926	890.312	219.977	391.719	1429.275	335.475	228.511	1415.244	128.134	250.572	1313.638	263.350	396.040	1259.723	186.105	425.875	1121.438	268.448	437.646	1008.629	258.797	462.999	889.332	354.157	46.584	958.300	261.451	32.094	1045.433	176.252	199.745	990.757	283.524	354.827	1038.094	375.236	323.148	951.544	367.065	68.623	717.508	352.803	79.151	632.632	239.218	-13.632	640.484	220.594	17.352	496.662	275.338	47.814	361.295	268.350	50.973	287.415	173.581	-6.226	366.552	165.154	-1.761	292.891	209.034	34.323	100.094	144.982	95.359	54.513	332.921	4.795	35.541	373.179	345.454	746.286	367.161	334.423	662.039	231.096	395.246	750.163	226.960	382.957	662.542	235.738	358.707	501.467	265.957	352.721	377.985	265.748	353.519	302.937	151.015	364.004	301.905	211.539	349.724	95.177	149.516	283.980	42.391	324.248	386.823	35.383	216.670	167.676	500.586	237.782	209.915	501.653	246.835	129.512	116.367	242.572	256.282	109.979	230.794	53.577	1092.032	240.398	324.696	1099.951	175.847	149.003	1006.365	184.636	249.282	1003.783	273.574	86.490	871.154	285.638	295.901	866.572
38	0.37000	266.071	3.695	1423.627	331.005	162.660	1412.288	287.824	-10.014	1247.685	212.644	-52.459	1111.608	309.651	-46.718	994.158	314.051	-84.772	890.247	219.832	391.584	1429.324	335.329	228.552	1415.366	127.871	250.793	1313.626	263.287	396.086	1259.627	186.060	425.962	1121.530	268.268	437.841	1008.682	258.797	462.999	889.332	354.007	46.801	958.117	261.074	32.331	1045.395	176.252	199.745	990.757	283.240	354.814	1038.093	374.769	323.610	951.935	367.227	69.088	717.594	352.803	79.151	632.632	239.218	-13.632	640.484	220.615	17.477	496.849	275.397	48.084	361.238	268.350	50.973	287.415	173.669	-6.200	366.610	165.154	-1.761	292.891	209.034	34.323	100.094	144.881	95.344	54.492	333.153	4.798	35.794	373.054	345.331	746.426	367.283	334.457	661.864	230.932	395.359	750.165	226.840	383.295	662.690	235.612	358.734	501.577	265.873	352.780	377.957	265.568	353.634	302.894	150.879	364.028	301.711	211.560	349.593	95.165	149.590	283.985	42.513	324.248	386.823	35.383	216.670	167.676	500.586	237.965	209.759	501.604	246.835	129.512	116.367	242.459	256.413	109.930	230.815	53.672	1091.937	240.398	324.696	1099.951	175.847	149.003	1006.365	184.411	249.279	1003.780	273.508	86.748	871.086	285.418	296.172	866.704
39	0.38000	266.071	3.695	1423.627	330.773	162.816	1412.184	287.824	-10.014	1247.685	212.649	-52.487	1111.540	309.915	-46.613	994.125	314.118	-84.681	890.208	219.299	391.487	1429.332	335.364	228.765	1415.278	127.415	250.799	1313.674	263.287	396.086	1259.627	186.060	425.962	1121.530	268.268	437.841	1008.682	258.746	462.999	889.431	353.915	46.928	958.074	261.074	32.331	1045.395	176.579	199.749	990.469	283.240	354.814	1038.093	375.044	324.052	951.684	367.196	69.250	717.648	352.921	79.432	632.724	239.269	-13.678	640.405	220.615	17.477	496.849	275.378	48.207	361.296	268.350	50.973	287.415	173.820	-6.252	366.583	165.200	-1.811	292.810	209.027	34.290	100.030	144.881	95.344	54.492	333.153	4.798	35.794	373.006	345.501	746.251	367.135	334.666	662.154	230.932	395.359	750.165	226.639	383.313	662.748	235.594	358.763	501.432	265.786	352.805	377.982	265.385	353.626	302.908	150.845	364.072	301.599	211.705	349.970	94.997	149.447	283.929	42.290	324.415	386.718	35.415	216.468	167.668	500.548	237.328	210.107	501.692	246.835	129.512	116.367	242.028	256.451	109.826	230.815	53.672	1091.937	240.709	324.887	1099.727	175.847	149.003	1006.365	184.458	249.423	1003.660	273.617	86.838	871.000	285.527	296.261	866.600
40	0.39000	265.895	3.565	1423.169	330.773	162.816	1412.184	287.719	-9.875	1247.633	212.618	-52.563	1111.322	309.948	-46.660	993.906	313.894	-84.568	890.014	218.842	391.393	1429.221	335.116	228.549	1414.751	127.293	251.004	1313.681	263.010	396.110	1259.664	186.060	425.962	1121.530	268.268	437.841	1008.682	258.797	462.999	889.332	353.915	46.928	958.074	261.074	32.331	1045.395	176.435	199.576	990.459	283.240	354.814	1038.093	374.678	324.038	951.676	367.174	69.380	717.602	352.936	79.374	632.459	239.269	-13.678	640.405	220.673	17.424	496.761	275.435	48.147	361.162	268.350	50.973	287.415	173.855	-6.330	366.539	165.306	-1.730	292.723	209.089	34.229	99.961	144.881	95.344	54.492	333.090	4.725	35.657	372.819	345.658	746.155	366.985	334.691	661.951	230.730	395.325	750.170	226.687	383.380	662.661	235.727	358.827	501.435	265.786	352.805	377.982	265.385	353.626	302.908	150.680	364.099	301.593	211.539	349.724	95.177	149.447	283.929	42.290	324.248	386.823	35.383	216.670	167.676	500.586	237.316	210.514	501.464	246.835	129.512	116.367	242.371	256.382	109.807	230.334	53.851	1091.900	240.709	324.887	1099.727	175.847	149.003	1006.365	184.458	249.423	1003.660	273.545	86.811	870.998	285.362	296.239	866.582
